# xmcd
#
# Track frame offsets: 
#        150
#        14400
#        32762
#        48325
#        68437
#        91612
#        107250
#        124150
#        141700
#        154925
#
# Disc length: 2293 seconds
#
# Revision: 2
# Processed by: cddbd v1.5.2PL0 Copyright (c) Steve Scherf et al.
# Submitted via: ExactAudioCopy v1.0b3
#
DISCID=7b08f30a
DTITLE=Asleep At The Wheel - Collision Course (1978)
DYEAR=2000
DGENRE=Western Swing
TTITLE0=Pipe Dreams
TTITLE1=Song Of The Wanderer(Where Shall I Go)
TTITLE2=Pine Grove Blues
TTITLE3=One O'clock Jump
TTITLE4=Louisiana
TTITLE5=Texas Me And You
TTITLE6=Ruler Of My Heart
TTITLE7=Don't Forget The Train
TTITLE8=Ain't Nobody Here But Us Chickens
TTITLE9=Ghost Dancer
EXTD=YEAR: 1978  ID3G:   2
EXTT0=
EXTT1=
EXTT2=
EXTT3=
EXTT4=
EXTT5=
EXTT6=
EXTT7=
EXTT8=
EXTT9=
PLAYORDER=
